<svg width="257" height="205" viewBox="0 0 257 205" fill="none" xmlns="http://www.w3.org/2000/svg">
<path d="M237.098 204.481H19.4318C14.2988 204.481 9.37606 202.442 5.7465 198.812C2.11694 195.182 0.0778809 190.26 0.0778809 185.127V67.1971C0.0778809 62.0642 2.11694 57.1414 5.7465 53.5119C9.37606 49.8823 14.2988 47.8433 19.4318 47.8433H53.7268C55.3398 47.8501 56.8968 47.2525 58.0909 46.1682C59.2851 45.0839 60.0297 43.5916 60.1781 41.9855L62.3199 18.7608C62.4416 13.7206 64.5384 8.92989 68.1585 5.42081C71.7786 1.91174 76.6323 -0.0348337 81.6738 0.000472004H174.96C180.092 0.000472004 185.015 2.03953 188.645 5.66909C192.274 9.29865 194.313 14.2214 194.313 19.3544L196.429 42.0113C196.578 43.6174 197.322 45.1097 198.517 46.194C199.711 47.2783 201.268 47.8759 202.881 47.8691H237.176C242.309 47.8691 247.231 49.9081 250.861 53.5377C254.491 57.1673 256.53 62.09 256.53 67.2229V185.153C256.526 187.699 256.021 190.219 255.042 192.569C254.063 194.919 252.63 197.053 250.825 198.849C249.02 200.644 246.878 202.066 244.523 203.032C242.167 203.999 239.644 204.491 237.098 204.481ZM19.4318 60.7458C17.7208 60.7458 16.0799 61.4255 14.87 62.6354C13.6602 63.8452 12.9805 65.4862 12.9805 67.1971V185.127C12.9805 186.838 13.6602 188.479 14.87 189.689C16.0799 190.898 17.7208 191.578 19.4318 191.578H237.098C238.809 191.578 240.45 190.898 241.66 189.689C242.87 188.479 243.55 186.838 243.55 185.127V67.1971C243.55 65.4862 242.87 63.8452 241.66 62.6354C240.45 61.4255 238.809 60.7458 237.098 60.7458H202.803C197.978 60.747 193.326 58.9455 189.76 55.6945C186.194 52.4435 183.971 47.9776 183.527 43.1725L181.385 19.9479C181.439 19.0583 181.313 18.1669 181.016 17.3268C180.718 16.4867 180.255 15.7151 179.653 15.0578C179.051 14.4005 178.323 13.871 177.512 13.5008C176.702 13.1307 175.825 12.9274 174.934 12.9031H81.6222C79.9112 12.9031 78.2703 13.5827 77.0605 14.7926C75.8506 16.0025 75.1709 17.6434 75.1709 19.3544L73.0033 43.1725C72.5593 47.9776 70.3364 52.4435 66.7703 55.6945C63.2043 58.9455 58.5524 60.747 53.7268 60.7458H19.4318Z" fill="#002020"/>
<path d="M128.264 170.379C118.057 170.379 108.079 167.352 99.5913 161.681C91.104 156.01 84.4889 147.95 80.5827 138.519C76.6764 129.089 75.6544 118.712 77.6458 108.7C79.6372 98.6889 84.5526 89.4929 91.7704 82.275C98.9882 75.0572 108.184 70.1418 118.196 68.1504C128.207 66.159 138.584 67.1811 148.015 71.0873C157.445 74.9936 165.506 81.6086 171.177 90.0959C176.848 98.5832 179.875 108.561 179.875 118.769C179.875 132.457 174.437 145.584 164.758 155.263C155.08 164.942 141.952 170.379 128.264 170.379ZM128.264 80.0613C120.609 80.0613 113.125 82.3315 106.76 86.5847C100.394 90.838 95.4328 96.8833 92.5031 103.956C89.5734 111.029 88.8069 118.812 90.3004 126.321C91.794 133.829 95.4805 140.726 100.894 146.14C106.307 151.553 113.204 155.24 120.713 156.733C128.221 158.227 136.004 157.46 143.077 154.53C150.15 151.601 156.195 146.639 160.449 140.274C164.702 133.908 166.972 126.425 166.972 118.769C166.972 108.503 162.894 98.6577 155.635 91.3985C148.376 84.1394 138.53 80.0613 128.264 80.0613Z" fill="#002020"/>
</svg>
