<svg width="204" height="204" viewBox="0 0 204 204" fill="none" xmlns="http://www.w3.org/2000/svg">
<path d="M140.025 64.8068L176.738 64.4642C176.739 64.4642 176.739 64.4642 176.74 64.4642C183.834 64.4737 190.635 67.2964 195.652 72.3134C200.669 77.3309 203.491 84.1336 203.5 91.2295V112.77C203.488 119.864 200.664 126.664 195.648 131.679C190.631 136.694 183.831 139.516 176.738 139.524H139.689H139.185L139.189 140.029L139.509 176.746C139.509 176.747 139.509 176.747 139.509 176.747C139.503 183.839 136.684 190.638 131.671 195.654C126.658 200.669 119.86 203.491 112.769 203.5H91.2305C84.1376 203.494 77.337 200.673 72.3215 195.657C67.3061 190.641 64.4858 183.84 64.4798 176.746V139.693V139.189L63.9753 139.193L27.2623 139.524C27.2613 139.524 27.2603 139.524 27.2593 139.524C20.1673 139.515 13.3683 136.694 8.3523 131.679C3.33573 126.664 0.511973 119.864 0.5 112.771V91.2292C0.508982 84.1334 3.33144 77.3308 8.34835 72.3134C13.3653 67.2958 20.1672 64.4731 27.2623 64.4642H64.3111H64.8156L64.811 63.9597L64.4798 27.2537C64.4798 27.2527 64.4798 27.2518 64.4798 27.2508C64.4866 20.1581 67.3068 13.3578 72.3215 8.34252C77.3369 3.32657 84.1375 0.505995 91.2303 0.5H112.77C119.862 0.505995 126.663 3.32657 131.678 8.34252C136.694 13.3585 139.514 20.16 139.52 27.2537V64.3068V64.8115L140.025 64.8068ZM27.2617 74.8863H27.2613C22.9285 74.8895 18.7741 76.6122 15.7103 79.6763C12.6466 82.7404 10.924 86.8953 10.9209 91.2285V91.2289V112.771L10.9209 112.772C10.9271 117.103 12.6511 121.255 15.7145 124.316C18.7779 127.378 22.9305 129.099 27.2613 129.102H27.2617H64.3111C67.1207 129.102 69.8155 130.218 71.8033 132.204C73.7911 134.19 74.9093 136.884 74.9122 139.694V176.747V176.747C74.9184 181.077 76.6407 185.227 79.7016 188.288C82.7624 191.349 86.9121 193.072 91.2408 193.078H91.2415H112.781H112.782C117.111 193.072 121.26 191.349 124.321 188.288C127.382 185.227 129.104 181.077 129.111 176.747V176.747V139.694C129.114 136.884 130.232 134.19 132.22 132.204C134.207 130.218 136.902 129.102 139.712 129.102H176.75H176.75C181.081 129.099 185.234 127.378 188.297 124.316C191.36 121.255 193.084 117.103 193.091 112.772V112.771V91.2289V91.2285C193.087 86.8932 191.363 82.7366 188.297 79.6722C185.231 76.6077 181.073 74.8863 176.738 74.8863H139.689C136.881 74.8863 134.188 73.7723 132.201 71.7887C130.213 69.8051 129.094 67.114 129.088 64.3058V27.2533V27.2526C129.082 22.9255 127.361 18.7772 124.303 15.7163C121.244 12.6554 117.098 10.9315 112.771 10.9222H112.77L91.2301 10.9222L91.2294 10.9222C86.9007 10.9284 82.751 12.6509 79.6902 15.7121C76.6293 18.7733 74.907 22.9234 74.9007 27.2526V27.2533V64.3058C74.895 67.114 73.7755 69.8051 71.788 71.7887C69.8006 73.7723 67.1074 74.8863 64.2996 74.8863H27.2617Z" fill="#002020" stroke="#002020"/>
</svg>
