<svg width="1097" height="1101" viewBox="0 0 1097 1101" fill="none" xmlns="http://www.w3.org/2000/svg">
<path d="M153.401 1100.09C132.267 1099.5 111.468 1094.66 92.2394 1085.87C73.0106 1077.09 55.7442 1064.52 41.4657 1048.93C27.1871 1033.34 16.1877 1015.03 9.12059 995.108C2.05352 975.182 -0.937026 954.039 0.326559 932.935C-0.408199 801.107 0.326559 669.279 0.326559 537.451C0.326559 529.332 3.55204 521.545 9.29345 515.803C15.0349 510.062 22.8219 506.836 30.9415 506.836C39.061 506.836 46.8481 510.062 52.5895 515.803C58.3309 521.545 61.5564 529.332 61.5564 537.451C61.5564 672.157 59.597 806.862 61.5564 941.568C62.536 1009.35 113.479 1038.86 174.097 1038.86H937.204C956.475 1039.34 975.431 1033.91 991.538 1023.32C1007.64 1012.73 1020.13 997.473 1027.33 979.592C1033.21 958.47 1035.28 936.474 1033.46 914.627V537.451C1033.46 529.332 1036.68 521.545 1042.42 515.803C1048.17 510.062 1055.95 506.836 1064.07 506.836C1072.19 506.836 1079.98 510.062 1085.72 515.803C1091.46 521.545 1094.69 529.332 1094.69 537.451C1094.69 673.626 1099.89 810.842 1094.69 946.895C1094.16 967.73 1089.49 988.252 1080.96 1007.27C1072.43 1026.28 1060.2 1043.41 1044.99 1057.65C1029.77 1071.9 1011.88 1082.98 992.346 1090.24C972.812 1097.51 952.028 1100.81 931.203 1099.97L153.401 1100.09Z" fill="black"/>
<path d="M525.558 784.758C530.604 789.925 537.445 792.95 544.662 793.208C545.519 793.208 546.315 793.514 547.233 793.575C548.152 793.637 548.887 793.575 549.744 793.208C556.964 792.963 563.809 789.935 568.848 784.758L793.5 560.106C799.076 554.332 802.162 546.599 802.093 538.572C802.023 530.544 798.803 522.866 793.127 517.19C787.451 511.513 779.772 508.294 771.745 508.224C763.718 508.154 755.984 511.24 750.21 516.817L577.848 689.179V31.4479C577.848 23.3283 574.623 15.5413 568.881 9.7999C563.14 4.05849 555.353 0.833008 547.233 0.833008C539.114 0.833008 531.327 4.05849 525.585 9.7999C519.844 15.5413 516.619 23.3283 516.619 31.4479V689.179L344.195 516.817C338.421 511.24 330.688 508.154 322.661 508.224C314.634 508.294 306.955 511.513 301.279 517.19C295.603 522.866 292.383 530.544 292.313 538.572C292.243 546.599 295.329 554.332 300.906 560.106L525.558 784.758Z" fill="black"/>
</svg>
