<svg width="163" height="205" viewBox="0 0 163 205" fill="none" xmlns="http://www.w3.org/2000/svg">
<path d="M137.45 204.482H26.2953C19.5189 204.482 13.02 201.772 8.22841 196.948C3.43678 192.125 0.744873 185.582 0.744873 178.76V170.252C0.744873 129.416 37.1388 96.1726 81.8724 96.1726C126.606 96.1726 163 129.395 163 170.252V178.76C163 182.138 162.339 185.483 161.055 188.604C159.771 191.724 157.889 194.56 155.516 196.948C153.144 199.337 150.327 201.232 147.227 202.524C144.127 203.817 140.805 204.482 137.45 204.482ZM81.8724 106.482C42.7701 106.482 10.965 135.085 10.965 170.272V178.781C10.965 182.874 12.5802 186.8 15.4551 189.694C18.3301 192.588 22.2294 194.214 26.2953 194.214H137.45C141.515 194.214 145.415 192.588 148.29 189.694C151.165 186.8 152.78 182.874 152.78 178.781V170.252C152.78 135.085 120.975 106.482 81.8724 106.482Z" fill="#002020"/>
<path d="M81.8722 80.7461C73.9399 80.7481 66.1853 78.382 59.5889 73.947C52.9925 69.512 47.8507 63.2073 44.8137 55.8303C41.7768 48.4532 40.9812 40.3352 42.5274 32.503C44.0737 24.6707 47.8924 17.4759 53.5006 11.8286C59.1088 6.18134 66.2546 2.33516 74.0343 0.776528C81.814 -0.782109 89.8781 0.0168109 97.2067 3.07225C104.535 6.12768 110.799 11.3024 115.206 17.9419C119.614 24.5815 121.966 32.3876 121.966 40.373C121.958 51.0763 117.731 61.3391 110.214 68.9084C102.697 76.4778 92.5041 80.7352 81.8722 80.7461ZM81.8722 10.299C75.9609 10.297 70.1817 12.06 65.2658 15.3649C60.3499 18.6698 56.518 23.3682 54.2549 28.8658C51.9918 34.3634 51.3992 40.4132 52.5519 46.25C53.7047 52.0867 56.551 57.4481 60.731 61.6561C64.9109 65.8641 70.2366 68.7296 76.0344 69.89C81.8323 71.0505 87.8417 70.4539 93.3027 68.1756C98.7636 65.8973 103.431 62.0398 106.714 57.0908C109.997 52.1419 111.748 46.324 111.746 40.373C111.738 32.3994 108.588 24.7547 102.987 19.1165C97.3864 13.4783 89.7926 10.3072 81.8722 10.299Z" fill="#002020"/>
</svg>
